<?xml version="1.0" standalone="no"?>
<!DOCTYPE svg PUBLIC "-//W3C//DTD SVG 20010904//EN"
 "http://www.w3.org/TR/2001/REC-SVG-20010904/DTD/svg10.dtd">
<svg version="1.0" xmlns="http://www.w3.org/2000/svg"
 width="475.000000pt" height="493.000000pt" viewBox="0 0 475.000000 493.000000"
 preserveAspectRatio="xMidYMid meet">

<g transform="translate(0.000000,493.000000) scale(0.100000,-0.100000)"
fill="#000000" stroke="none">
<path d="M1200 4650 l0 -270 433 2 432 3 3 268 2 267 -435 0 -435 0 0 -270z"/>
<path d="M1198 2453 l-3 -1668 -597 -3 -598 -2 0 -390 0 -390 1035 0 1035 0 0
900 0 900 648 2 c356 1 760 2 897 2 l250 1 3 -902 2 -903 435 0 435 0 0 2060
0 2060 -435 0 -435 0 0 -710 0 -710 -787 -1 c-434 0 -837 -2 -898 -2 l-110 -2
-3 713 -2 712 -435 0 -435 0 -2 -1667z"/>
</g>
</svg>
